<?xml version="1.0" standalone="no"?>
<!DOCTYPE svg PUBLIC "-//W3C//DTD SVG 20010904//EN"
 "http://www.w3.org/TR/2001/REC-SVG-20010904/DTD/svg10.dtd">
<svg version="1.0" xmlns="http://www.w3.org/2000/svg"
 width="2286.000000pt" height="2286.000000pt" viewBox="0 0 2286.000000 2286.000000"
 preserveAspectRatio="xMidYMid meet">
<metadata>
Created by potrace 1.14, written by Peter Selinger 2001-2017
</metadata>
<g transform="translate(0.000000,2286.000000) scale(0.100000,-0.100000)"
fill="#000000" stroke="none">
<path d="M10015 20282 c-11 -2 -28 -13 -37 -25 -13 -14 -21 -17 -30 -9 -14 12
-88 -6 -88 -21 0 -5 -5 -5 -10 -2 -6 4 -16 2 -23 -3 -7 -6 -32 -11 -57 -13
-25 -1 -49 -6 -55 -10 -11 -8 -16 -9 -44 -9 -20 0 -38 -40 -39 -90 -1 -14 -7
-27 -13 -29 -7 -2 -22 -14 -34 -27 -12 -13 -25 -24 -27 -24 -3 0 -23 -8 -44
-17 -22 -9 -43 -18 -49 -19 -5 -1 -28 -10 -50 -20 -50 -22 -50 -22 -170 -40
-22 -4 -47 -12 -56 -20 -11 -10 -18 -11 -27 -2 -9 9 -18 8 -39 -2 -16 -7 -31
-13 -35 -12 -4 1 -20 -4 -35 -10 -15 -7 -32 -12 -38 -13 -29 -4 -124 -59 -127
-73 -2 -10 -12 -17 -23 -17 -12 0 -20 -7 -20 -17 0 -10 -6 -23 -13 -30 -6 -6
-12 -18 -12 -25 0 -7 -4 -13 -9 -13 -5 0 -16 -16 -25 -35 -17 -34 -16 -36 5
-68 13 -17 27 -35 31 -38 9 -6 -35 -47 -71 -66 -26 -14 -124 -94 -129 -105 -2
-5 -10 -8 -18 -8 -8 0 -17 -7 -20 -15 -4 -8 -11 -15 -18 -15 -10 0 -45 -27
-105 -83 -14 -12 -21 -15 -16 -7 4 8 -9 -3 -30 -25 -21 -22 -39 -38 -40 -35
-3 8 -53 -30 -99 -75 -22 -22 -62 -56 -88 -74 -26 -19 -45 -38 -42 -43 3 -4
-2 -11 -11 -14 -15 -6 -48 -32 -107 -86 -36 -33 -49 -106 -23 -128 20 -17 19
-43 -4 -64 -10 -9 -29 -48 -41 -86 -12 -39 -26 -67 -30 -65 -10 6 -25 -34 -17
-42 3 -3 -5 -15 -19 -28 -29 -27 -30 -41 -5 -55 21 -10 104 -4 131 10 9 5 34
7 56 5 37 -3 58 -9 129 -38 17 -6 32 -12 35 -12 3 0 14 -5 25 -11 11 -6 50
-21 88 -34 97 -34 92 -57 -33 -150 -49 -37 -100 -86 -100 -97 0 -5 -49 -61
-110 -123 -60 -62 -110 -121 -110 -131 0 -22 26 -43 45 -35 15 5 20 -10 15
-43 -4 -33 11 -58 45 -71 40 -16 39 -13 21 -48 -7 -15 -12 -43 -10 -62 1 -19
3 -41 3 -48 1 -6 6 -11 13 -10 7 2 15 -10 19 -27 10 -48 21 -75 30 -75 5 0 9
-5 9 -11 0 -16 36 -59 44 -52 3 3 6 1 6 -5 0 -7 6 -12 14 -12 7 0 18 -6 24
-13 9 -10 1 -23 -33 -57 -74 -73 -54 -98 85 -103 59 -2 65 -4 62 -22 -2 -11
-7 -22 -10 -25 -4 -3 -9 -16 -10 -30 -2 -14 -1 -22 3 -18 4 3 19 -6 33 -22 21
-22 39 -30 79 -33 29 -3 57 -8 63 -12 12 -8 13 -26 1 -22 -5 1 -24 -11 -42
-28 -19 -16 -35 -28 -37 -26 -7 6 -92 -74 -92 -87 0 -7 -5 -10 -10 -7 -6 3
-13 -2 -17 -12 -3 -10 -14 -28 -24 -41 -10 -14 -15 -32 -12 -45 3 -12 6 -47 7
-77 1 -49 5 -59 40 -95 21 -22 35 -33 31 -25 -4 8 3 3 16 -11 26 -28 69 -55
82 -51 18 5 186 -99 200 -124 4 -8 15 -14 23 -14 9 0 12 -5 8 -11 -4 -7 -1
-10 7 -7 8 3 26 -3 41 -14 15 -10 37 -21 48 -23 11 -2 29 -10 40 -18 22 -15
27 -7 -54 -87 -37 -35 -47 -75 -24 -98 7 -7 8 -12 4 -12 -5 0 -2 -10 6 -22 8
-13 18 -39 21 -58 15 -85 19 -96 37 -109 11 -7 20 -17 20 -22 0 -10 48 -87 65
-104 35 -36 120 -86 180 -105 39 -12 95 -34 125 -47 30 -14 60 -26 65 -28 6
-1 22 -7 37 -13 62 -26 139 -41 233 -47 55 -3 111 -8 125 -10 23 -3 99 -14
146 -20 16 -2 88 -16 149 -30 78 -16 132 -23 195 -24 30 -1 61 -5 68 -9 14 -9
21 -92 27 -332 7 -307 7 -331 1 -337 -3 -3 -29 17 -58 45 -178 171 -237 231
-256 259 -26 36 -31 36 -107 -12 -43 -27 -114 -58 -137 -60 -3 0 -9 -3 -13 -6
-8 -9 -45 1 -45 12 0 5 -5 9 -11 9 -9 0 -76 46 -89 61 -7 8 -130 79 -137 79
-3 0 -44 19 -92 41 -94 45 -127 59 -152 64 -9 2 -38 12 -65 23 -233 95 -247
97 -629 97 -376 -1 -793 -15 -875 -30 -19 -4 -48 -8 -63 -10 -79 -11 -113 -16
-127 -20 -8 -2 -44 -7 -80 -10 -113 -10 -193 -25 -270 -52 -100 -34 -290 -127
-366 -178 -34 -23 -83 -52 -108 -66 -25 -13 -46 -30 -46 -37 0 -7 -4 -11 -9
-8 -15 10 -199 -140 -323 -262 -65 -64 -123 -119 -128 -120 -6 -2 -8 -8 -4
-13 3 -5 0 -9 -6 -9 -6 0 -58 -48 -116 -106 -81 -82 -104 -112 -104 -133 0
-15 3 -31 7 -34 3 -4 8 -28 9 -52 3 -40 18 -161 29 -235 2 -14 7 -44 10 -67
17 -123 69 -315 145 -538 34 -99 64 -193 66 -210 3 -16 12 -41 19 -55 15 -28
27 -58 31 -80 2 -8 8 -24 13 -37 25 -53 33 -73 70 -178 39 -110 78 -201 129
-305 31 -62 28 -57 85 -130 86 -109 137 -197 143 -247 3 -26 13 -63 21 -81 23
-52 24 -75 4 -97 -28 -32 -80 -122 -74 -129 4 -3 1 -6 -5 -6 -7 0 -12 -7 -12
-16 0 -9 -6 -30 -14 -47 -32 -76 -40 -96 -61 -162 -46 -139 -94 -273 -120
-331 -15 -32 -28 -66 -30 -74 -2 -8 -13 -46 -25 -83 -12 -38 -22 -77 -23 -88
-1 -10 -4 -19 -8 -19 -4 0 -7 -10 -7 -22 -1 -29 -6 -50 -14 -63 -7 -13 -22
-78 -20 -87 1 -5 -3 -8 -10 -8 -6 0 -9 -3 -5 -6 3 -3 2 -17 -3 -30 -6 -14 -12
-37 -15 -52 -9 -40 -13 -57 -16 -57 -1 0 -3 -9 -5 -20 -4 -26 -12 -62 -19 -85
-3 -10 -8 -29 -10 -42 -3 -13 -7 -34 -10 -48 -7 -35 -13 -78 -19 -130 -3 -25
-8 -63 -11 -85 -3 -22 -8 -58 -11 -80 -5 -47 -15 -240 -17 -337 -1 -38 -4 -68
-7 -68 -7 0 -3 -345 5 -455 3 -49 8 -119 10 -155 3 -36 7 -81 9 -100 3 -19 8
-55 11 -80 3 -25 7 -56 10 -70 17 -92 23 -214 12 -257 -3 -12 0 -36 6 -53 15
-41 133 -100 187 -95 19 2 76 6 125 9 88 6 277 51 283 68 2 4 8 6 12 3 5 -3
36 5 69 19 33 13 74 27 91 31 18 4 62 22 98 39 37 18 82 38 99 45 18 8 30 18
26 24 -3 5 -2 8 3 4 21 -13 206 89 274 150 14 13 29 23 35 23 5 0 27 15 47 33
74 64 120 102 137 111 23 12 66 59 63 68 -1 5 2 8 8 8 5 0 28 18 50 40 23 22
45 38 51 35 15 -10 41 -66 46 -99 3 -17 17 -80 33 -141 47 -180 99 -429 105
-497 3 -34 8 -81 11 -103 3 -22 7 -53 9 -70 2 -16 13 -86 25 -155 12 -69 22
-132 22 -140 0 -8 3 -37 8 -65 5 -27 11 -70 14 -95 3 -25 8 -63 11 -85 9 -74
15 -130 20 -194 3 -35 8 -83 10 -105 3 -23 8 -72 10 -111 12 -175 22 -305 29
-360 3 -22 8 -76 11 -120 4 -44 8 -91 10 -105 3 -14 7 -52 10 -85 3 -33 8 -78
11 -100 2 -22 7 -65 10 -95 5 -52 21 -186 29 -240 2 -14 6 -50 10 -80 11 -92
15 -123 22 -165 3 -22 7 -60 8 -85 4 -62 12 -114 42 -260 14 -69 25 -131 26
-137 0 -7 4 -13 9 -13 5 0 7 -4 4 -9 -3 -5 -2 -22 3 -37 34 -108 50 -164 55
-198 8 -47 35 -96 56 -97 38 -3 86 3 94 12 6 5 17 9 25 9 9 0 29 7 45 15 15 8
37 15 47 15 11 0 19 4 19 8 0 4 8 8 18 9 9 1 78 17 152 36 74 20 153 38 175
41 22 4 54 11 70 16 17 5 41 11 55 14 14 2 90 18 170 34 159 33 246 48 330 57
30 3 75 8 100 10 25 3 108 7 185 10 77 3 208 8 290 11 214 8 731 8 930 0 94
-4 231 -9 305 -11 145 -5 316 -14 365 -21 17 -2 68 -6 115 -9 47 -3 103 -7
125 -10 39 -3 120 -10 260 -20 39 -3 88 -8 110 -10 22 -2 82 -7 134 -10 51 -4
108 -8 125 -10 17 -2 74 -7 126 -10 52 -4 109 -9 125 -11 127 -16 517 -22 700
-10 173 11 208 18 356 67 107 35 171 53 239 65 14 3 41 13 60 22 49 24 52 59
7 109 -28 32 -33 45 -31 83 2 59 3 60 13 60 5 0 26 8 47 17 22 9 42 16 47 15
4 -1 7 2 7 6 0 4 8 8 18 9 9 1 46 13 81 27 36 15 73 26 83 26 10 0 18 4 18 8
0 4 8 8 18 8 27 1 216 66 223 76 3 5 9 9 13 8 10 -3 120 42 126 51 3 5 27 18
53 29 26 12 47 25 47 31 0 6 5 7 10 4 6 -3 16 0 24 8 8 7 47 36 87 63 41 27
76 51 79 54 3 3 29 23 57 44 29 20 62 51 74 67 12 17 50 59 85 95 35 35 65 69
65 74 1 6 2 13 3 18 1 4 12 22 26 40 29 40 30 46 12 92 -8 19 -14 36 -13 38 0
1 1 3 0 5 0 1 -3 13 -6 27 -7 39 -11 55 -13 55 -1 0 -3 11 -6 25 -2 14 -11 48
-20 75 -9 28 -18 61 -21 74 -2 13 -8 32 -14 43 -5 10 -7 18 -5 18 3 0 -2 19
-10 43 -9 23 -17 49 -19 57 -2 8 -4 16 -5 18 -2 1 -3 5 -5 10 -3 12 -16 45
-27 72 -6 14 -12 34 -14 45 -1 11 -8 34 -14 50 -6 17 -11 32 -10 34 1 2 -2 7
-7 10 -4 3 -17 24 -28 46 -17 34 -20 57 -18 160 1 66 5 156 9 200 4 44 7 145
6 225 -2 380 -12 1011 -16 1060 -2 30 -7 91 -10 135 -6 90 -15 203 -21 285
-17 202 -24 305 -30 465 -6 142 -11 230 -20 320 -3 28 -7 77 -10 111 -5 69
-15 162 -19 184 -7 42 -40 141 -47 146 -12 7 -11 40 0 62 15 29 39 96 41 112
1 13 7 79 9 103 1 4 11 17 23 29 12 12 23 32 24 43 0 11 31 76 68 143 37 68
69 132 71 142 2 10 12 33 21 52 10 18 19 35 19 38 1 3 14 31 28 63 15 32 27
63 27 70 0 7 4 17 9 23 8 9 53 164 55 194 1 9 4 20 8 25 4 8 18 52 22 75 8 35
31 107 37 116 5 6 10 19 12 30 1 10 5 24 9 29 3 6 9 26 13 45 4 19 10 40 13
45 7 11 8 14 17 60 3 17 12 53 20 80 17 63 42 192 52 270 13 100 5 425 -12
503 -3 12 -8 48 -11 80 -7 79 -10 103 -28 213 -9 53 -18 116 -21 140 -3 24
-25 121 -50 214 -25 94 -59 226 -76 295 -17 68 -35 130 -41 137 -6 7 -8 13 -5
13 6 0 -45 123 -88 215 -15 31 -29 72 -30 90 -4 44 -62 107 -135 149 -30 17
-58 30 -62 28 -5 -1 -8 2 -8 6 0 17 -361 173 -429 186 -9 1 -47 12 -86 24 -38
12 -82 24 -98 26 -15 3 -35 7 -45 10 -9 2 -39 7 -67 11 -47 5 -66 8 -139 20
-69 11 -199 19 -296 19 -105 -1 -212 -7 -470 -29 -30 -3 -103 -8 -162 -10 -59
-3 -117 -8 -130 -11 -13 -3 -62 -7 -109 -9 -87 -4 -87 -3 -162 39 -77 44 -165
83 -204 91 -18 3 -32 -9 -70 -58 -42 -55 -90 -107 -99 -107 -4 0 4 331 8 335
2 2 38 6 81 9 52 3 96 13 131 29 70 32 221 131 267 174 35 33 68 41 123 30 11
-2 40 7 66 19 26 12 73 29 104 38 69 18 89 34 105 85 6 21 18 44 26 51 8 7 12
16 9 21 -3 5 -2 8 3 7 4 -1 31 10 60 25 44 23 54 33 62 65 15 56 77 98 171
117 48 9 57 15 72 45 10 19 20 53 23 75 18 116 15 111 43 96 12 -6 40 -11 63
-11 38 0 46 5 93 56 28 31 72 78 99 105 26 26 47 50 47 53 0 8 26 38 81 94 68
68 73 82 50 137 -12 28 -10 82 5 145 3 14 8 42 11 63 4 25 16 47 36 65 56 51
122 124 120 133 -2 5 2 9 7 9 6 0 10 7 10 15 0 8 4 15 10 15 24 0 33 109 12
160 -5 14 -10 48 -10 77 0 28 -3 57 -8 65 -5 7 -10 22 -11 32 -2 11 -8 25 -14
33 -6 7 -9 13 -5 13 3 0 1 12 -5 28 -16 37 -20 80 -23 202 -1 62 -7 117 -15
135 -8 17 -15 41 -17 55 -8 70 -13 89 -38 140 -14 30 -26 60 -26 66 0 12 31
24 65 24 37 1 67 25 82 65 22 61 28 89 15 81 -7 -4 -5 12 5 39 9 28 13 60 9
83 -3 20 -6 52 -6 70 0 20 -5 35 -15 38 -8 3 -12 10 -10 15 3 5 -1 20 -10 33
-9 14 -18 32 -19 40 -1 9 -13 32 -27 53 -32 50 -79 146 -84 174 -3 12 -14 51
-26 86 -22 66 -28 175 -15 243 11 55 8 101 -6 116 -4 3 -5 11 -2 18 3 7 -4 21
-16 31 -11 10 -20 14 -20 10 0 -5 -9 1 -20 13 -12 12 -26 22 -32 22 -6 0 -34
11 -62 25 -28 13 -65 25 -81 27 -29 3 -46 14 -100 67 -21 20 -37 24 -100 27
-92 4 -120 16 -103 44 7 10 16 16 20 14 4 -3 8 0 8 7 0 7 3 10 6 6 7 -6 31 13
91 70 38 38 43 47 39 79 -7 51 -8 52 -104 58 -30 1 -57 7 -60 12 -4 6 -18 11
-32 11 -45 3 -90 14 -90 22 0 14 -41 51 -51 46 -5 -4 -9 1 -9 9 0 8 -17 33
-37 55 -21 21 -38 41 -38 42 -2 9 -40 49 -47 49 -4 0 -18 11 -32 25 -14 14
-33 25 -44 25 -10 0 -23 5 -29 11 -5 5 -21 11 -34 13 -13 2 -37 9 -54 15 -16
7 -42 13 -57 13 -16 1 -28 5 -28 11 0 5 -8 7 -19 4 -10 -2 -29 4 -42 14 -13
10 -32 19 -41 19 -9 0 -24 7 -32 16 -9 8 -16 12 -16 8 0 -3 -6 -1 -13 5 -8 6
-18 7 -22 3 -5 -4 -5 -2 -1 5 4 7 -2 17 -14 23 -11 6 -20 8 -20 4 0 -3 -6 -1
-13 5 -8 6 -17 8 -20 4 -4 -3 -7 -1 -7 5 0 6 -13 13 -30 17 -16 4 -30 10 -30
15 0 11 -99 60 -122 60 -10 0 -18 5 -18 12 0 6 -3 8 -6 5 -4 -3 -15 -2 -26 4
-11 6 -63 15 -116 20 -109 10 -126 13 -163 27 -31 12 -269 12 -269 0 0 -5 -4
-6 -10 -3 -5 3 -10 2 -10 -4 0 -6 -7 -8 -15 -5 -8 4 -21 1 -29 -5 -7 -6 -16
-8 -19 -5 -3 3 -11 2 -18 -2 -7 -4 -27 -9 -44 -11 -16 -2 -32 -8 -33 -13 -2
-6 -8 -7 -13 -4 -5 3 -30 -6 -54 -21 -25 -14 -45 -23 -45 -20 0 3 -9 1 -21 -5
-11 -7 -32 -14 -46 -16 -34 -6 -206 -95 -216 -111 -5 -8 -12 -11 -16 -9 -4 3
-17 -2 -27 -12 -11 -9 -26 -18 -34 -20 -8 -2 -23 -12 -32 -24 -10 -11 -18 -16
-18 -12 0 5 -6 2 -13 -6 -7 -9 -22 -23 -35 -32 -13 -9 -48 -39 -78 -67 -30
-28 -62 -51 -72 -51 -10 0 -22 -4 -27 -9 -6 -5 -27 -13 -47 -16 -30 -6 -39 -4
-44 9 -3 9 -10 16 -15 16 -8 0 -76 49 -127 91 -7 5 -18 7 -25 3 -6 -4 -9 -4
-6 0 12 13 -42 56 -128 103 -87 47 -107 53 -178 56 -22 1 -49 7 -60 13 -20 12
-79 27 -91 24 -4 -1 -10 2 -13 7 -3 4 -27 19 -53 33 -26 13 -50 30 -52 37 -3
7 -16 13 -29 13 -13 0 -32 9 -41 19 -10 10 -38 25 -64 32 -26 6 -51 13 -57 15
-5 1 -37 14 -69 27 -33 14 -65 23 -73 20 -7 -3 -13 -1 -13 4 0 5 -8 10 -17 11
-53 5 -131 8 -148 4z"/>
<path d="M18596 5383 c-1 -1 -89 -5 -196 -9 -107 -4 -214 -7 -237 -8 -23 -1
-45 -5 -49 -8 -3 -4 -6 -83 -6 -175 0 -262 -2 -241 30 -245 l27 -3 0 -503 c0
-391 -3 -506 -12 -514 -7 -6 -13 -7 -13 -4 0 4 -7 3 -16 -2 -14 -8 -16 -33
-16 -188 0 -98 1 -191 1 -206 l1 -28 118 4 c221 9 501 21 570 25 9 1 12 58 12
249 l0 249 -102 -5 c-57 -2 -105 -6 -108 -9 -3 -3 -5 -19 -5 -36 l0 -32 -85
-3 -86 -3 2 143 c2 171 1 158 18 158 16 0 24 -16 21 -48 -2 -23 -1 -23 104
-20 l106 3 5 170 c3 94 4 221 2 283 l-3 113 -107 -3 -106 -3 -1 -34 c-1 -34
-21 -54 -34 -33 -5 9 -7 218 -2 282 1 12 18 15 84 17 l84 2 -2 -35 c-2 -29 1
-34 19 -35 40 -1 143 2 162 6 10 2 22 4 27 4 4 1 7 111 7 246 l0 246 -106 -3
c-58 -2 -106 -4 -108 -5z"/>
<path d="M17818 5355 c-2 -2 -238 -13 -326 -15 -19 0 -34 -24 -98 -152 l-76
-153 -2 -635 -1 -635 69 -135 c37 -74 74 -142 82 -150 14 -14 65 -15 229 -5
22 1 75 3 117 4 l78 1 78 158 77 157 -1 355 c-1 195 -2 361 -3 368 -1 10 -36
11 -163 6 -90 -3 -164 -7 -166 -9 -2 -2 -4 -266 -3 -353 1 -32 3 -33 34 -30
l32 3 3 -80 c2 -45 -2 -96 -9 -117 -12 -37 -14 -38 -61 -39 -26 -1 -58 -2 -70
-3 -15 -1 -30 8 -40 24 -16 23 -18 64 -18 479 0 494 2 520 50 522 14 0 47 2
73 3 68 4 77 -17 77 -172 l0 -120 128 5 c70 3 129 7 131 9 3 2 5 95 5 207 l1
202 -74 145 c-40 80 -74 146 -76 148 -4 4 -73 10 -77 7z"/>
<path d="M16827 5313 c-1 -1 -55 -3 -120 -4 -65 -2 -131 -5 -147 -7 l-28 -4 1
-209 c0 -196 2 -209 19 -209 10 0 18 -6 18 -12 0 -7 -18 -100 -40 -206 -22
-106 -42 -205 -45 -220 -2 -15 -16 -83 -31 -152 -14 -69 -28 -136 -30 -150 -2
-14 -7 -36 -10 -50 -3 -14 -8 -38 -11 -53 -2 -16 -12 -65 -21 -109 -15 -72
-20 -81 -41 -85 -14 -2 -27 -5 -29 -7 -3 -4 -5 -298 -3 -389 l1 -29 103 6 c56
3 137 6 180 7 63 2 77 5 78 18 0 9 1 104 1 211 1 170 -1 195 -15 194 -12 -1
-14 6 -10 35 3 20 8 39 12 43 3 4 61 9 128 12 l122 5 7 -36 c5 -27 3 -38 -9
-44 -13 -8 -15 -40 -16 -213 -1 -155 2 -205 11 -209 7 -2 40 -3 73 -1 33 2
107 6 165 8 58 2 108 5 113 5 4 1 7 96 7 211 l0 210 -30 0 c-16 0 -30 2 -30 5
0 7 -22 116 -67 330 -19 94 -37 179 -39 190 -2 11 -6 31 -9 45 -3 14 -7 36
-10 50 -3 14 -21 104 -41 200 -20 96 -37 179 -37 184 -1 4 6 10 16 11 11 2 21
6 23 8 5 4 7 188 5 355 l-1 63 -106 -3 c-58 -1 -106 -4 -107 -5z m9 -965 c3
-21 2 -38 -3 -39 -4 -1 -31 -2 -59 -3 l-51 -3 19 91 c10 50 23 116 30 146 l11
55 24 -105 c13 -58 26 -122 29 -142z"/>
<path d="M16177 5284 c-2 -2 -122 -7 -437 -20 -85 -3 -181 -7 -213 -8 -31 -2
-60 -6 -64 -9 -5 -5 -8 -462 -4 -520 1 -10 197 -4 208 6 3 4 7 29 7 55 1 44 3
47 29 50 l27 3 0 -515 0 -516 -30 0 -30 0 0 -210 0 -211 178 7 c97 4 183 7
190 7 9 0 12 50 12 212 0 196 -1 212 -17 212 -10 0 -23 1 -29 2 -8 1 -11 145
-10 508 l1 507 27 7 c27 7 27 7 30 -49 l3 -57 55 0 c30 0 77 2 105 5 l50 5 1
250 c1 138 0 257 -2 265 -3 11 -16 15 -45 15 -22 0 -41 0 -42 -1z"/>
<path d="M15236 5243 c-1 -1 -46 -3 -101 -4 -55 -2 -105 -4 -111 -6 -8 -3 -11
-69 -11 -214 l0 -209 29 0 28 0 -1 -207 -1 -208 -18 55 c-18 54 -44 138 -176
561 l-66 217 -62 -5 c-33 -2 -100 -5 -148 -6 -48 -1 -90 -5 -94 -9 -4 -4 -7
-99 -7 -210 l-1 -203 30 -5 29 -5 0 -508 c0 -474 -1 -508 -17 -513 -10 -3 -22
-2 -28 1 -6 4 -10 -7 -11 -27 -1 -50 -1 -350 0 -376 l1 -22 153 6 c83 4 166 7
184 7 17 -1 33 4 36 11 2 6 3 101 2 211 l0 200 -23 -2 c-16 -2 -25 4 -30 20
-8 24 -8 354 0 362 3 3 21 -48 41 -112 19 -65 75 -245 123 -400 l88 -281 91 5
c49 2 119 5 155 6 l65 2 3 213 2 212 -28 0 -29 0 1 512 c1 448 3 513 16 514 8
1 21 2 28 2 9 2 12 51 12 211 l0 210 -76 -2 c-42 -1 -76 -3 -78 -4z"/>
<path d="M14306 5213 c-1 -1 -57 -3 -124 -5 l-122 -3 -1 -35 c0 -19 -1 -115
-2 -213 l-2 -177 30 0 30 0 -1 -507 c-1 -280 -2 -510 -3 -513 0 -3 -11 -6 -22
-7 -12 -1 -24 -4 -27 -7 -4 -4 -7 -352 -3 -404 1 -9 34 -11 154 -6 83 4 166 6
184 6 17 0 33 5 36 12 3 10 2 389 -2 409 0 4 -13 7 -28 7 l-28 0 2 497 c1 274
2 503 2 509 1 6 13 14 29 17 l27 6 -1 203 c-1 112 -2 206 -3 210 -1 5 -119 7
-125 1z"/>
<path d="M13826 5193 c-1 -1 -44 -3 -96 -4 -52 -1 -100 -4 -107 -6 -9 -4 -12
-60 -12 -215 1 -177 3 -209 15 -204 18 7 17 1 -1 -104 -9 -47 -17 -98 -20
-115 -2 -16 -7 -41 -9 -55 -3 -14 -16 -94 -30 -179 -25 -151 -35 -189 -37
-140 0 13 -2 31 -4 39 -3 15 -38 211 -50 280 -3 19 -10 60 -15 90 -29 167 -29
175 -11 175 12 0 15 36 15 212 l1 212 -110 -5 c-60 -3 -147 -6 -192 -7 -66 -2
-83 -5 -84 -17 -1 -21 -1 -371 0 -392 1 -12 12 -18 39 -20 l37 -3 17 -95 c9
-52 19 -108 21 -125 3 -16 24 -140 46 -275 23 -135 44 -258 47 -275 2 -16 7
-37 9 -45 2 -8 7 -39 10 -67 4 -29 11 -67 16 -85 11 -41 11 -51 0 -43 -5 3
-15 -1 -23 -8 -10 -10 -13 -59 -12 -213 l0 -199 110 1 c171 1 385 12 392 19 4
4 7 99 7 211 l0 204 -24 0 c-27 0 -27 -12 4 170 9 52 18 109 21 125 2 17 9 55
14 85 5 30 12 71 15 90 3 19 8 42 10 50 2 8 7 35 10 60 9 67 14 100 25 155 5
28 12 66 15 85 3 19 8 42 10 50 2 8 6 35 10 60 3 25 7 54 9 65 3 11 5 25 5 31
1 6 17 10 36 9 19 -1 39 3 44 9 5 6 9 102 9 214 l0 203 -90 -3 c-49 -2 -91 -4
-92 -5z"/>
<path d="M12377 5133 c-2 -1 -243 -11 -429 -18 -26 0 -50 -4 -53 -7 -5 -5 -10
-356 -6 -405 1 -6 13 -13 28 -15 l28 -3 0 -500 c1 -275 -1 -506 -3 -513 -3 -7
-10 -11 -17 -8 -34 13 -37 -9 -37 -205 0 -107 1 -200 1 -206 1 -10 37 -11 159
-7 141 6 196 9 213 13 3 0 5 94 5 209 -1 176 -3 207 -16 208 -8 1 -21 2 -27 3
-10 1 -13 41 -13 166 l0 165 33 1 c17 0 47 2 65 3 60 4 62 -11 62 -406 l0
-348 103 4 c56 2 128 5 160 5 l57 1 -2 213 -3 212 -27 -1 -28 -1 0 214 0 214
-30 59 -30 60 30 60 30 59 0 248 c0 193 -3 253 -14 268 -7 11 -41 74 -75 141
l-61 120 -51 0 c-28 -1 -51 -2 -52 -3z m-23 -458 c21 -44 21 -166 1 -205 -9
-17 -23 -30 -33 -31 -9 0 -38 -2 -64 -3 l-48 -3 0 132 c0 72 2 134 4 136 3 2
31 5 65 6 58 1 60 0 75 -32z"/>
<path d="M11617 5103 c-3 -2 -378 -16 -439 -17 -47 0 -48 -1 -49 -30 0 -33 0
-323 1 -368 0 -22 5 -27 27 -30 l28 -3 0 -503 c0 -325 -4 -506 -10 -510 -5 -4
-16 -7 -23 -8 -8 -2 -16 -5 -19 -7 -2 -3 -5 -97 -5 -209 l0 -203 88 1 c105 1
521 17 597 23 16 1 17 20 17 250 l0 248 -32 -2 c-18 -2 -67 -3 -109 -4 l-77
-1 3 -29 c1 -16 0 -34 -4 -39 -8 -14 -161 -20 -162 -7 -1 6 -2 72 -3 149 -1
105 2 140 12 144 18 6 25 -3 27 -35 l1 -28 107 0 107 -1 -2 286 c-2 211 -6
284 -15 283 -6 -1 -52 -3 -102 -5 -56 -1 -92 -6 -93 -12 0 -6 -1 -22 -2 -36
-1 -23 -34 -44 -37 -23 -6 48 -2 286 5 291 6 3 44 7 87 8 l77 4 -4 -36 -3 -35
97 2 c53 1 103 4 110 7 9 3 12 62 12 249 l0 244 -106 -3 c-58 -2 -106 -4 -107
-5z"/>
<path d="M10937 5073 c-2 -1 -223 -11 -284 -12 l-23 -1 0 -209 c0 -141 4 -211
11 -213 6 -2 -16 -56 -51 -126 -34 -67 -65 -120 -68 -118 -9 5 -7 224 1 233 4
3 17 6 29 7 l23 1 0 210 0 210 -115 -3 c-160 -3 -250 -9 -257 -16 -3 -3 -6
-97 -6 -208 l-1 -203 30 -5 29 -5 -1 -500 c-1 -275 -2 -505 -3 -512 0 -6 -10
-10 -21 -8 -14 3 -23 -3 -28 -15 -5 -14 -8 -354 -3 -403 1 -4 67 -5 149 -1 81
3 165 7 187 8 l40 1 0 210 0 210 -27 0 c-21 -1 -28 4 -29 20 -1 11 -2 29 -3
40 -1 21 42 120 50 113 18 -19 84 -163 75 -166 -7 -2 -11 -71 -11 -214 l0
-210 183 7 c100 4 199 8 220 8 21 0 40 5 44 10 5 8 8 310 4 400 -1 14 -8 18
-29 16 -37 -4 -49 5 -76 59 -44 91 -199 387 -213 407 -7 11 -13 26 -13 34 0 7
57 128 126 267 131 265 125 257 187 257 9 0 17 2 18 6 1 8 1 371 0 397 -1 20
-6 21 -72 20 -39 -1 -71 -2 -72 -3z"/>
<path d="M9697 5023 c-1 0 -60 -4 -132 -7 -71 -2 -132 -5 -135 -5 -3 -1 -6
-95 -7 -211 0 -199 1 -210 18 -210 11 0 19 -4 19 -8 0 -5 -23 -120 -50 -258
-28 -137 -52 -258 -54 -269 -2 -11 -16 -78 -31 -150 -15 -71 -29 -141 -31
-155 -36 -186 -39 -195 -67 -194 -16 1 -27 -4 -28 -12 0 -8 -1 -99 -1 -204 0
-104 1 -195 1 -201 1 -7 49 -8 154 -3 83 3 164 7 180 7 15 0 27 3 28 6 0 3 2
99 2 214 2 181 0 207 -13 207 -12 0 -15 8 -12 35 2 19 8 37 12 40 4 2 62 6
128 9 l121 5 7 -35 c5 -25 2 -38 -8 -47 -13 -10 -15 -46 -14 -217 l1 -205 115
4 c105 3 186 7 233 10 16 1 17 18 17 211 l0 210 -29 0 c-30 0 -31 3 -48 95 -2
11 -10 54 -19 95 -9 41 -31 152 -51 245 -19 94 -36 177 -38 185 -7 32 -34 166
-39 193 -3 15 -7 35 -10 45 -6 21 -14 63 -23 120 -5 38 -4 42 16 42 21 0 21 2
21 211 l0 210 -116 -3 c-63 -2 -116 -4 -117 -5z m8 -861 c15 -73 25 -136 21
-139 -3 -4 -29 -8 -56 -10 -60 -3 -59 -7 -30 133 25 121 28 137 29 148 2 23
11 -8 36 -132z"/>
<path d="M9067 4994 c-1 -1 -55 -4 -120 -7 -65 -2 -119 -6 -121 -8 -3 -4 -72
-231 -82 -269 -2 -8 -12 -44 -23 -80 -78 -255 -100 -328 -109 -350 -8 -23 -10
-23 -15 -5 -13 48 -69 233 -78 260 -6 17 -37 118 -70 225 -34 107 -63 197 -65
199 -3 3 -48 4 -102 2 -53 -2 -121 -4 -149 -5 -35 -1 -53 -5 -54 -13 -1 -17
-1 -390 0 -402 1 -5 13 -11 29 -13 l27 -3 0 -503 c0 -277 -3 -509 -7 -515 -4
-6 -10 -8 -14 -5 -4 4 -14 3 -23 -1 -14 -8 -16 -33 -14 -203 1 -106 2 -198 2
-205 1 -9 43 -11 171 -7 93 3 178 7 187 8 16 3 18 20 18 212 0 160 -3 209 -12
210 -7 1 -21 2 -30 3 -17 1 -18 18 -16 228 1 126 2 230 3 233 0 3 44 -132 96
-300 52 -168 98 -314 103 -324 5 -15 13 -2 31 55 13 41 25 79 26 84 6 29 148
491 153 497 3 4 6 -97 6 -225 l0 -232 -29 -5 -30 -5 1 -205 0 -205 183 3 c101
1 186 5 189 8 7 6 9 394 3 412 -2 7 -12 10 -22 7 -10 -3 -22 0 -26 6 -6 10
-10 811 -5 986 1 27 5 32 28 35 l27 3 1 195 c1 107 -1 202 -3 211 -2 11 -14
16 -34 15 -16 0 -30 -2 -31 -2z"/>
<path d="M7977 4954 c-1 -1 -87 -5 -191 -8 -104 -4 -192 -9 -196 -11 -4 -2 -7
-97 -8 -210 0 -201 1 -211 31 -206 11 2 11 3 -49 -119 l-56 -113 -48 92 c-60
113 -66 131 -46 131 14 0 16 26 16 211 l0 210 -167 -6 c-257 -11 -273 -12
-280 -18 -3 -4 -6 -98 -6 -209 l-1 -203 48 -5 48 -5 62 -120 c34 -66 91 -174
126 -240 128 -244 114 -191 115 -432 l1 -213 -22 0 c-13 0 -25 -4 -29 -9 -4
-8 -9 -325 -6 -403 1 -17 13 -17 241 -4 36 3 81 5 100 5 l36 1 0 210 0 210
-28 0 c-32 0 -29 -24 -29 258 l0 162 154 308 c154 307 154 307 188 310 19 2
36 7 39 12 4 7 5 368 1 405 -1 9 -36 16 -44 9z"/>
<path d="M6678 4905 c-2 -2 -78 -7 -168 -11 -187 -8 -268 -11 -291 -13 -14 -1
-16 -27 -16 -211 0 -197 1 -210 19 -210 22 0 22 -10 4 -92 -8 -35 -17 -76 -19
-93 -3 -16 -10 -50 -16 -75 -5 -25 -12 -58 -15 -75 -5 -25 -89 -439 -102 -500
-23 -111 -37 -182 -37 -193 0 -9 -8 -11 -23 -8 -13 4 -26 1 -30 -6 -6 -9 -9
-293 -5 -398 1 -19 6 -20 179 -14 97 4 179 8 181 10 4 3 5 328 2 402 -1 12 -7
22 -15 22 -11 0 -13 7 -6 30 5 17 6 30 2 30 -3 0 -2 4 4 10 5 5 64 12 131 14
l122 6 7 -35 c6 -35 -1 -59 -15 -50 -5 2 -8 -91 -7 -208 l1 -212 100 3 c55 2
127 5 160 7 33 2 70 3 83 4 l22 1 0 210 0 210 -29 0 c-26 0 -29 4 -39 53 -50
240 -105 506 -108 527 -3 14 -9 41 -14 60 -5 19 -11 53 -15 75 -3 22 -12 67
-20 101 -18 76 -24 107 -32 162 -5 38 -4 42 16 42 21 0 21 2 21 209 0 170 -3
210 -14 214 -8 3 -16 4 -18 2z m-193 -874 c20 -100 24 -136 15 -141 -7 -4 -33
-7 -58 -6 -35 2 -46 6 -45 16 1 8 14 69 28 135 14 66 25 124 25 129 0 26 10
-12 35 -133z"/>
<path d="M5497 4854 c-1 -1 -59 -4 -129 -6 -70 -3 -130 -7 -134 -10 -3 -4 -6
-82 -6 -175 0 -263 -2 -241 29 -245 l28 -3 0 -507 c0 -280 -2 -508 -5 -509
-24 -3 -43 -8 -46 -12 -4 -3 -7 -257 -5 -375 l1 -44 133 6 c127 6 263 12 467
21 52 2 97 4 100 5 4 0 5 489 1 523 -1 12 -201 5 -209 -7 -3 -6 -7 -31 -7 -56
l0 -45 -73 -5 c-41 -3 -79 -2 -85 2 -14 7 -17 1001 -3 1015 4 4 17 8 29 8 22
0 22 1 22 210 l0 210 -53 0 c-29 1 -54 0 -55 -1z"/>
<path d="M4907 4823 c-2 -1 -266 -11 -444 -17 -23 -1 -45 -5 -49 -8 -5 -6 -7
-123 -5 -350 1 -65 2 -67 29 -70 l27 -3 0 -503 c0 -522 -1 -533 -40 -518 -10
3 -15 -1 -16 -12 0 -17 0 -376 1 -400 0 -11 30 -12 153 -7 132 6 198 10 217
14 4 1 5 386 1 415 0 4 -12 5 -26 2 l-26 -7 3 148 3 147 60 2 c33 1 90 3 126
4 37 2 71 5 76 9 5 3 41 71 81 150 l72 144 0 286 0 287 -32 59 c-17 33 -37 74
-45 90 -8 17 -19 39 -25 50 -6 11 -20 36 -31 56 -18 35 -23 37 -64 35 -25 0
-45 -2 -46 -3z m-45 -433 c23 -35 28 -62 28 -151 0 -131 -14 -159 -80 -160
-25 0 -53 -2 -62 -4 -17 -3 -18 10 -18 154 0 87 2 160 4 162 7 6 124 5 128 -1z"/>
</g>
</svg>
